{
    "accessors" : [
        {
            "bufferView" : 0, 
            "componentType" : 5123, 
            "count" : 7056, 
            "max" : [
                1274
            ], 
            "min" : [
                0
            ], 
            "type" : "SCALAR"
        }, 
        {
            "bufferView" : 1, 
            "componentType" : 5126, 
            "count" : 1275, 
            "max" : [
                0.5, 
                0.5, 
                0.5
            ], 
            "min" : [
                -0.5, 
                -0.5, 
                -0.5
            ], 
            "type" : "VEC3"
        }, 
        {
            "bufferView" : 2, 
            "componentType" : 5126, 
            "count" : 1275, 
            "max" : [
                0.999969482421875, 
                0.999969482421875, 
                0.999969482421875
            ], 
            "min" : [
                -0.999969482421875, 
                -0.999969482421875, 
                -0.999969482421875
            ], 
            "type" : "VEC3"
        }, 
        {
            "bufferView" : 3, 
            "componentType" : 5126, 
            "count" : 1275, 
            "max" : [
                0.9999929070472717, 
                0.9999929070472717, 
                0.7739825248718262, 
                1.0
            ], 
            "min" : [
                -0.9999927878379822, 
                -0.7071009278297424, 
                -0.7739825248718262, 
                1.0
            ], 
            "type" : "VEC4"
        }, 
        {
            "bufferView" : 4, 
            "componentType" : 5126, 
            "count" : 1275, 
            "max" : [
                0.875, 
                1.0
            ], 
            "min" : [
                0.125, 
                0.0
            ], 
            "type" : "VEC2"
        }
    ], 
    "asset" : {
        "generator" : "Khronos Blender glTF 2.0 exporter", 
        "version" : "2.0"
    }, 
    "bufferViews" : [
        {
            "buffer" : 0, 
            "byteLength" : 14112, 
            "byteOffset" : 0, 
            "target" : 34963
        }, 
        {
            "buffer" : 0, 
            "byteLength" : 15300, 
            "byteOffset" : 14112, 
            "target" : 34962
        }, 
        {
            "buffer" : 0, 
            "byteLength" : 15300, 
            "byteOffset" : 29412, 
            "target" : 34962
        }, 
        {
            "buffer" : 0, 
            "byteLength" : 20400, 
            "byteOffset" : 44712, 
            "target" : 34962
        }, 
        {
            "buffer" : 0, 
            "byteLength" : 10200, 
            "byteOffset" : 65112, 
            "target" : 34962
        }
    ], 
    "buffers" : [
        {
            "byteLength" : 75312, 
            "uri" : "chamfer-box.bin"
        }
    ], 
    "meshes" : [
        {
            "name" : "Cube.001", 
            "primitives" : [
                {
                    "attributes" : {
                        "NORMAL" : 2, 
                        "POSITION" : 1, 
                        "TANGENT" : 3, 
                        "TEXCOORD_0" : 4
                    }, 
                    "indices" : 0
                }
            ]
        }
    ], 
    "nodes" : [
        {
            "mesh" : 0, 
            "name" : "Cube"
        }
    ], 
    "scene" : 0, 
    "scenes" : [
        {
            "name" : "Scene", 
            "nodes" : [
                0
            ]
        }
    ]
}
