{
    "accessors" : [
        {
            "bufferView" : 0, 
            "componentType" : 5121, 
            "count" : 372, 
            "max" : [
                135
            ], 
            "min" : [
                0
            ], 
            "type" : "SCALAR"
        }, 
        {
            "bufferView" : 1, 
            "componentType" : 5126, 
            "count" : 136, 
            "max" : [
                1.0, 
                1.0, 
                1.0
            ], 
            "min" : [
                -1.0, 
                -1.0, 
                -1.0
            ], 
            "type" : "VEC3"
        }, 
        {
            "bufferView" : 2, 
            "componentType" : 5126, 
            "count" : 136, 
            "max" : [
                1.0, 
                1.0, 
                0.999969482421875
            ], 
            "min" : [
                -0.999969482421875, 
                -1.0, 
                -1.0
            ], 
            "type" : "VEC3"
        }, 
        {
            "bufferView" : 3, 
            "componentType" : 5126, 
            "count" : 136, 
            "max" : [
                0.9569412469863892, 
                1.7141406942755566e-06, 
                0.9951852560043335, 
                1.0
            ], 
            "min" : [
                -1.0, 
                -1.8272547777087311e-06, 
                -1.0, 
                1.0
            ], 
            "type" : "VEC4"
        }, 
        {
            "bufferView" : 4, 
            "componentType" : 5126, 
            "count" : 136, 
            "max" : [
                0.9999999403953552, 
                2.0
            ], 
            "min" : [
                0.0, 
                1.0000000596046448
            ], 
            "type" : "VEC2"
        }
    ], 
    "asset" : {
        "generator" : "Khronos Blender glTF 2.0 exporter", 
        "version" : "2.0"
    }, 
    "bufferViews" : [
        {
            "buffer" : 0, 
            "byteLength" : 372, 
            "byteOffset" : 0, 
            "target" : 34963
        }, 
        {
            "buffer" : 0, 
            "byteLength" : 1632, 
            "byteOffset" : 372, 
            "target" : 34962
        }, 
        {
            "buffer" : 0, 
            "byteLength" : 1632, 
            "byteOffset" : 2004, 
            "target" : 34962
        }, 
        {
            "buffer" : 0, 
            "byteLength" : 2176, 
            "byteOffset" : 3636, 
            "target" : 34962
        }, 
        {
            "buffer" : 0, 
            "byteLength" : 1088, 
            "byteOffset" : 5812, 
            "target" : 34962
        }
    ], 
    "buffers" : [
        {
            "byteLength" : 6900, 
            "uri" : "cylinder.bin"
        }
    ], 
    "meshes" : [
        {
            "name" : "Cylinder", 
            "primitives" : [
                {
                    "attributes" : {
                        "NORMAL" : 2, 
                        "POSITION" : 1, 
                        "TANGENT" : 3, 
                        "TEXCOORD_0" : 4
                    }, 
                    "indices" : 0
                }
            ]
        }
    ], 
    "nodes" : [
        {
            "mesh" : 0, 
            "name" : "Cylinder"
        }, 
        {
            "children" : [
                0
            ], 
            "name" : "SceneRoot", 
            "rotation" : [
                -3.090862321641907e-08, 
                0.7071068286895752, 
                0.7071067094802856, 
                -3.0908616110991716e-08
            ]
        }
    ], 
    "scene" : 0, 
    "scenes" : [
        {
            "name" : "Scene", 
            "nodes" : [
                1
            ]
        }
    ]
}
