{
    "accessors" : [
        {
            "bufferView" : 0, 
            "componentType" : 5123, 
            "count" : 5244, 
            "max" : [
                891
            ], 
            "min" : [
                0
            ], 
            "type" : "SCALAR"
        }, 
        {
            "bufferView" : 1, 
            "componentType" : 5126, 
            "count" : 892, 
            "max" : [
                0.7503765821456909, 
                1.500023365020752, 
                0.7456225156784058
            ], 
            "min" : [
                -0.7496234178543091, 
                2.301368658663705e-05, 
                -0.7543774247169495
            ], 
            "type" : "VEC3"
        }, 
        {
            "bufferView" : 2, 
            "componentType" : 5126, 
            "count" : 892, 
            "max" : [
                0.9980162978172302, 
                1.0, 
                1.0
            ], 
            "min" : [
                -0.9980162978172302, 
                -1.0, 
                -1.0
            ], 
            "type" : "VEC3"
        }
    ], 
    "asset" : {
        "generator" : "Khronos Blender glTF 2.0 exporter", 
        "version" : "2.0"
    }, 
    "bufferViews" : [
        {
            "buffer" : 0, 
            "byteLength" : 10488, 
            "byteOffset" : 0, 
            "target" : 34963
        }, 
        {
            "buffer" : 0, 
            "byteLength" : 10704, 
            "byteOffset" : 10488, 
            "target" : 34962
        }, 
        {
            "buffer" : 0, 
            "byteLength" : 10704, 
            "byteOffset" : 21192, 
            "target" : 34962
        }
    ], 
    "buffers" : [
        {
            "byteLength" : 31896, 
            "uri" : "valve.bin"
        }
    ], 
    "meshes" : [
        {
            "name" : "Valve", 
            "primitives" : [
                {
                    "attributes" : {
                        "NORMAL" : 2, 
                        "POSITION" : 1
                    }, 
                    "indices" : 0
                }
            ]
        }
    ], 
    "nodes" : [
        {
            "mesh" : 0, 
            "name" : "valve"
        }
    ], 
    "scene" : 0, 
    "scenes" : [
        {
            "name" : "Scene", 
            "nodes" : [
                0
            ]
        }
    ]
}
