{
    "accessors" : [
        {
            "bufferView" : 0, 
            "componentType" : 5123, 
            "count" : 3840, 
            "max" : [
                747
            ], 
            "min" : [
                0
            ], 
            "type" : "SCALAR"
        }, 
        {
            "bufferView" : 1, 
            "componentType" : 5126, 
            "count" : 748, 
            "max" : [
                0.5, 
                0.5, 
                0.4999999701976776
            ], 
            "min" : [
                -0.4999999701976776, 
                -0.5, 
                -0.4999999701976776
            ], 
            "type" : "VEC3"
        }, 
        {
            "bufferView" : 2, 
            "componentType" : 5126, 
            "count" : 748, 
            "max" : [
                0.999969482421875, 
                1.0, 
                1.0
            ], 
            "min" : [
                -0.999969482421875, 
                -1.0, 
                -1.0
            ], 
            "type" : "VEC3"
        }, 
        {
            "bufferView" : 3, 
            "componentType" : 5126, 
            "count" : 748, 
            "max" : [
                0.9207316637039185, 
                0.6015198826789856, 
                0.9552431702613831, 
                1.0
            ], 
            "min" : [
                -0.9207315444946289, 
                -0.6015199422836304, 
                -0.9552428126335144, 
                1.0
            ], 
            "type" : "VEC4"
        }, 
        {
            "bufferView" : 4, 
            "componentType" : 5126, 
            "count" : 748, 
            "max" : [
                1.0, 
                1.0
            ], 
            "min" : [
                0.0, 
                5.960464477539063e-08
            ], 
            "type" : "VEC2"
        }
    ], 
    "asset" : {
        "generator" : "Khronos Blender glTF 2.0 exporter", 
        "version" : "2.0"
    }, 
    "bufferViews" : [
        {
            "buffer" : 0, 
            "byteLength" : 7680, 
            "byteOffset" : 0, 
            "target" : 34963
        }, 
        {
            "buffer" : 0, 
            "byteLength" : 8976, 
            "byteOffset" : 7680, 
            "target" : 34962
        }, 
        {
            "buffer" : 0, 
            "byteLength" : 8976, 
            "byteOffset" : 16656, 
            "target" : 34962
        }, 
        {
            "buffer" : 0, 
            "byteLength" : 11968, 
            "byteOffset" : 25632, 
            "target" : 34962
        }, 
        {
            "buffer" : 0, 
            "byteLength" : 5984, 
            "byteOffset" : 37600, 
            "target" : 34962
        }
    ], 
    "buffers" : [
        {
            "byteLength" : 43584, 
            "uri" : "ico-sphere.bin"
        }
    ], 
    "meshes" : [
        {
            "name" : "Icosphere", 
            "primitives" : [
                {
                    "attributes" : {
                        "NORMAL" : 2, 
                        "POSITION" : 1, 
                        "TANGENT" : 3, 
                        "TEXCOORD_0" : 4
                    }, 
                    "indices" : 0
                }
            ]
        }
    ], 
    "nodes" : [
        {
            "mesh" : 0, 
            "name" : "Icosphere"
        }
    ], 
    "scene" : 0, 
    "scenes" : [
        {
            "name" : "Scene", 
            "nodes" : [
                0
            ]
        }
    ]
}
