{
    "accessors" : [
        {
            "bufferView" : 0, 
            "componentType" : 5123, 
            "count" : 1068, 
            "max" : [
                707
            ], 
            "min" : [
                0
            ], 
            "type" : "SCALAR"
        }, 
        {
            "bufferView" : 1, 
            "componentType" : 5126, 
            "count" : 708, 
            "max" : [
                0.4498579502105713, 
                1.6039984226226807, 
                0.11029189825057983
            ], 
            "min" : [
                -0.4498579502105713, 
                0.0007679760456085205, 
                -0.11029189825057983
            ], 
            "type" : "VEC3"
        }, 
        {
            "bufferView" : 2, 
            "componentType" : 5126, 
            "count" : 708, 
            "max" : [
                0.9876863360404968, 
                0.9059049487113953, 
                0.9988725185394287
            ], 
            "min" : [
                -0.9876863360404968, 
                -1.0, 
                -0.9988725185394287
            ], 
            "type" : "VEC3"
        }
    ], 
    "asset" : {
        "generator" : "Khronos Blender glTF 2.0 exporter", 
        "version" : "2.0"
    }, 
    "bufferViews" : [
        {
            "buffer" : 0, 
            "byteLength" : 2136, 
            "byteOffset" : 0, 
            "target" : 34963
        }, 
        {
            "buffer" : 0, 
            "byteLength" : 8496, 
            "byteOffset" : 2136, 
            "target" : 34962
        }, 
        {
            "buffer" : 0, 
            "byteLength" : 8496, 
            "byteOffset" : 10632, 
            "target" : 34962
        }
    ], 
    "buffers" : [
        {
            "byteLength" : 19128, 
            "uri" : "slingshot.bin"
        }
    ], 
    "meshes" : [
        {
            "name" : "Cylinder.001", 
            "primitives" : [
                {
                    "attributes" : {
                        "NORMAL" : 2, 
                        "POSITION" : 1
                    }, 
                    "indices" : 0
                }
            ]
        }
    ], 
    "nodes" : [
        {
            "mesh" : 0, 
            "name" : "slingshot"
        }
    ], 
    "scene" : 0, 
    "scenes" : [
        {
            "name" : "Scene", 
            "nodes" : [
                0
            ]
        }
    ]
}
