{
    "accessors" : [
        {
            "bufferView" : 0, 
            "componentType" : 5123, 
            "count" : 91116, 
            "max" : [
                55654
            ], 
            "min" : [
                0
            ], 
            "type" : "SCALAR"
        }, 
        {
            "bufferView" : 1, 
            "componentType" : 5126, 
            "count" : 55655, 
            "max" : [
                54.937591552734375, 
                9.388364791870117, 
                25.29787826538086
            ], 
            "min" : [
                -22.772430419921875, 
                -1.3816490173339844, 
                -40.947265625
            ], 
            "type" : "VEC3"
        }, 
        {
            "bufferView" : 2, 
            "componentType" : 5126, 
            "count" : 55655, 
            "max" : [
                1.0, 
                1.0, 
                1.0
            ], 
            "min" : [
                -1.0, 
                -1.0, 
                -1.0
            ], 
            "type" : "VEC3"
        }
    ], 
    "asset" : {
        "generator" : "Khronos Blender glTF 2.0 exporter", 
        "version" : "2.0"
    }, 
    "bufferViews" : [
        {
            "buffer" : 0, 
            "byteLength" : 182232, 
            "byteOffset" : 0, 
            "target" : 34963
        }, 
        {
            "buffer" : 0, 
            "byteLength" : 667860, 
            "byteOffset" : 182232, 
            "target" : 34962
        }, 
        {
            "buffer" : 0, 
            "byteLength" : 667860, 
            "byteOffset" : 850092, 
            "target" : 34962
        }
    ], 
    "buffers" : [
        {
            "byteLength" : 1517952, 
            "uri" : "street-03.bin"
        }
    ], 
    "meshes" : [
        {
            "name" : "Cube.011", 
            "primitives" : [
                {
                    "attributes" : {
                        "NORMAL" : 2, 
                        "POSITION" : 1
                    }, 
                    "indices" : 0
                }
            ]
        }
    ], 
    "nodes" : [
        {
            "mesh" : 0, 
            "name" : "street", 
            "rotation" : [
                -8.146033536604591e-08, 
                0.0, 
                -0.0, 
                1.0
            ], 
            "translation" : [
                -35.12018966674805, 
                1.4212002754211426, 
                6.744446277618408
            ]
        }
    ], 
    "scene" : 0, 
    "scenes" : [
        {
            "name" : "Scene", 
            "nodes" : [
                0
            ]
        }
    ]
}
