{
    "accessors" : [
        {
            "bufferView" : 0, 
            "componentType" : 5123, 
            "count" : 1584, 
            "max" : [
                322
            ], 
            "min" : [
                0
            ], 
            "type" : "SCALAR"
        }, 
        {
            "bufferView" : 1, 
            "componentType" : 5126, 
            "count" : 323, 
            "max" : [
                1.0, 
                1.0, 
                1.0
            ], 
            "min" : [
                -1.0, 
                -1.0, 
                -1.0
            ], 
            "type" : "VEC3"
        }, 
        {
            "bufferView" : 2, 
            "componentType" : 5126, 
            "count" : 323, 
            "max" : [
                1.0, 
                1.0, 
                0.9912717342376709
            ], 
            "min" : [
                -1.0, 
                -0.9914243221282959, 
                -0.9912717342376709
            ], 
            "type" : "VEC3"
        }, 
        {
            "bufferView" : 3, 
            "componentType" : 5126, 
            "count" : 323, 
            "max" : [
                1.0, 
                1.0, 
                2.8423288313206285e-05, 
                1.0
            ], 
            "min" : [
                -0.9914482235908508, 
                -1.0, 
                -2.8473141355789267e-05, 
                1.0
            ], 
            "type" : "VEC4"
        }, 
        {
            "bufferView" : 4, 
            "componentType" : 5126, 
            "count" : 323, 
            "max" : [
                0.9999998211860657, 
                1.9999998211860657
            ], 
            "min" : [
                0.0, 
                1.0
            ], 
            "type" : "VEC2"
        }
    ], 
    "asset" : {
        "generator" : "Khronos Blender glTF 2.0 exporter", 
        "version" : "2.0"
    }, 
    "bufferViews" : [
        {
            "buffer" : 0, 
            "byteLength" : 3168, 
            "byteOffset" : 0, 
            "target" : 34963
        }, 
        {
            "buffer" : 0, 
            "byteLength" : 3876, 
            "byteOffset" : 3168, 
            "target" : 34962
        }, 
        {
            "buffer" : 0, 
            "byteLength" : 3876, 
            "byteOffset" : 7044, 
            "target" : 34962
        }, 
        {
            "buffer" : 0, 
            "byteLength" : 5168, 
            "byteOffset" : 10920, 
            "target" : 34962
        }, 
        {
            "buffer" : 0, 
            "byteLength" : 2584, 
            "byteOffset" : 16088, 
            "target" : 34962
        }
    ], 
    "buffers" : [
        {
            "byteLength" : 18672, 
            "uri" : "uv-sphere.bin"
        }
    ], 
    "meshes" : [
        {
            "name" : "Untitled.003", 
            "primitives" : [
                {
                    "attributes" : {
                        "NORMAL" : 2, 
                        "POSITION" : 1, 
                        "TANGENT" : 3, 
                        "TEXCOORD_0" : 4
                    }, 
                    "indices" : 0
                }
            ]
        }
    ], 
    "nodes" : [
        {
            "children" : [
                1
            ], 
            "name" : "SceneRoot", 
            "rotation" : [
                -3.090862321641907e-08, 
                0.7071067094802856, 
                -0.7071068286895752, 
                -3.0908616110991716e-08
            ]
        }, 
        {
            "mesh" : 0, 
            "name" : "Sphere003", 
            "rotation" : [
                -2.1855697696082643e-08, 
                -4.235164736271502e-22, 
                -0.0, 
                1.0
            ], 
            "scale" : [
                0.5, 
                0.5, 
                0.5
            ]
        }
    ], 
    "scene" : 0, 
    "scenes" : [
        {
            "name" : "Scene", 
            "nodes" : [
                0
            ]
        }
    ]
}
